<svg width="500" height="511" viewBox="0 0 500 511" fill="none" xmlns="http://www.w3.org/2000/svg">
<path d="M499.609 196.601C499.608 195.831 499.436 194.668 499.137 193.998C498.35 191.144 496.601 188.537 493.983 186.717L420.691 135.769V81.153C420.691 73.913 414.819 68.041 407.579 68.041H323.26L251.517 18.163C247.033 15.042 241.08 15.029 236.582 18.137L164.376 68.041H80.426C73.184 68.041 67.314 73.913 67.314 81.153V135.126L-6.334 186.027C-9.957 188.531 -11.917 192.534 -11.979 196.627C-11.983 196.704 -12 196.777 -12 196.857L-11.609 481.092C-11.604 484.569 -10.218 487.902 -7.757 490.358C-5.299 492.809 -1.969 494.185 1.503 494.185C1.51 494.185 1.515 494.185 1.521 494.185L486.906 493.518C494.146 493.508 500.01 487.629 500 480.388L499.609 196.601ZM420.69 167.708L462.588 196.826L420.69 225.954V167.708ZM244.015 44.884L277.325 68.04H210.513L244.015 44.884ZM93.538 94.265H394.466V244.186L293.43 314.428L252.236 282.474C252.172 282.424 252.117 282.393 252.055 282.348C247.451 278.894 240.939 278.767 236.161 282.474L194.668 314.659L93.538 244.766V94.265V94.265ZM67.314 167.003V226.643L24.168 196.824L67.314 167.003ZM14.258 221.867L172.927 331.522L14.578 454.346L14.258 221.867ZM39.875 467.909L244.199 309.425L447.79 467.348L39.875 467.909ZM315.144 331.271L473.42 221.235L473.74 454.294L315.144 331.271Z" fill="#EBFF00"/>
<path d="M332.77 146.713H155.234C147.994 146.713 142.122 152.585 142.122 159.825C142.122 167.065 147.994 172.937 155.234 172.937H332.77C340.012 172.937 345.882 167.065 345.882 159.825C345.882 152.585 340.012 146.713 332.77 146.713Z" fill="#EBFF00"/>
<path d="M332.77 214.895H155.234C147.994 214.895 142.122 220.767 142.122 228.007C142.122 235.247 147.994 241.119 155.234 241.119H332.77C340.012 241.119 345.882 235.247 345.882 228.007C345.882 220.767 340.012 214.895 332.77 214.895Z" fill="#EBFF00"/>
</svg>
