<svg width="465" height="465" viewBox="0 0 465 465" fill="none" xmlns="http://www.w3.org/2000/svg">
<path d="M300.867 395.979H189.566C185.424 395.979 182.066 399.337 182.066 403.479C182.066 407.621 185.424 410.979 189.566 410.979H300.867C305.009 410.979 308.367 407.621 308.367 403.479C308.367 399.337 305.009 395.979 300.867 395.979Z" fill="#FFFF00"/>
<path d="M300.867 365.979H189.566C185.424 365.979 182.066 369.337 182.066 373.479C182.066 377.621 185.424 380.979 189.566 380.979H300.867C305.009 380.979 308.367 377.621 308.367 373.479C308.367 369.337 305.009 365.979 300.867 365.979Z" fill="#FFFF00"/>
<path d="M300.867 335.979H189.566C185.424 335.979 182.066 339.337 182.066 343.479C182.066 347.621 185.424 350.979 189.566 350.979H300.867C305.009 350.979 308.367 347.621 308.367 343.479C308.367 339.337 305.009 335.979 300.867 335.979Z" fill="#FFFF00"/>
<path d="M300.867 255.26H189.566C185.424 255.26 182.066 258.618 182.066 262.76V300.48C182.066 304.622 185.424 307.98 189.566 307.98H209.566C213.708 307.98 217.066 304.622 217.066 300.48C217.066 296.338 213.708 292.98 209.566 292.98H197.066V270.26H293.367V292.98H239.566C235.424 292.98 232.066 296.338 232.066 300.48C232.066 304.622 235.424 307.98 239.566 307.98H300.867C305.009 307.98 308.367 304.622 308.367 300.48V262.76C308.367 258.618 305.009 255.26 300.867 255.26Z" fill="#FFFF00"/>
<path d="M380.857 255.26C358.19 255.26 339.75 273.701 339.75 296.367C339.75 319.033 358.191 337.474 380.857 337.474C403.523 337.474 421.964 319.033 421.964 296.367C421.964 273.701 403.523 255.26 380.857 255.26ZM380.857 322.475C366.461 322.475 354.75 310.763 354.75 296.368C354.75 281.973 366.462 270.261 380.857 270.261C395.252 270.261 406.964 281.973 406.964 296.368C406.964 310.763 395.252 322.475 380.857 322.475Z" fill="#FFFF00"/>
<path d="M439.5 208.728H425V115.609C425 111.467 421.642 108.109 417.5 108.109H392.92V14.989C392.92 10.847 389.562 7.489 385.42 7.489H216.313C212.171 7.489 208.813 10.847 208.813 14.989V108.109H184.233C180.091 108.109 176.733 111.467 176.733 115.609V208.728H150.487C149.715 166.533 148.403 136.508 148.384 136.089C148.382 136.047 148.38 136.005 148.377 135.962C147.902 128.207 142.554 120.854 135.456 117.68C132.187 114.514 124.152 112.551 95.518 112.551C66.884 112.551 58.849 114.514 55.58 117.68C48.483 120.854 43.135 128.207 42.659 135.962C42.657 136.004 42.654 136.047 42.652 136.089C42.634 136.508 41.321 166.531 40.549 208.728H25.5C11.439 208.728 0 220.167 0 234.228V432.012C0 446.073 11.439 457.512 25.5 457.512H439.5C453.561 457.512 465 446.073 465 432.012V234.228C465 220.167 453.561 208.728 439.5 208.728ZM410 123.108V208.727H392.92V123.108H410ZM223.813 22.488H377.92V208.727H223.813V22.488ZM191.733 123.108H208.813V208.727H191.733V123.108ZM57.635 136.831C57.806 134.556 60.188 131.691 62.389 131.13C63.692 130.798 64.86 130.128 65.792 129.213C68.272 128.647 75.639 127.551 95.519 127.551C115.399 127.551 122.766 128.647 125.246 129.213C126.178 130.129 127.347 130.798 128.649 131.13C130.85 131.691 133.232 134.556 133.402 136.832C133.51 139.324 135.997 197.327 136.037 265.027C135.997 332.735 133.511 390.739 133.402 393.231C133.232 395.506 130.849 398.372 128.648 398.933C127.345 399.265 126.177 399.935 125.245 400.85C122.765 401.416 115.398 402.512 95.518 402.512C75.638 402.512 68.271 401.416 65.791 400.85C64.859 399.934 63.691 399.265 62.388 398.933C60.187 398.372 57.805 395.507 57.634 393.232C57.526 390.74 55.04 332.754 55 265.035C55.04 197.327 57.526 139.323 57.635 136.831ZM450 432.012C450 437.802 445.29 442.512 439.5 442.512H25.5C19.71 442.512 15 437.802 15 432.012V234.228C15 228.438 19.71 223.728 25.5 223.728H40.308C40.126 236.777 40.008 250.688 40 265.036C40.041 334.248 42.627 393.385 42.653 393.974C42.655 394.016 42.657 394.059 42.66 394.101C43.136 401.856 48.484 409.208 55.581 412.383C58.85 415.549 66.885 417.512 95.519 417.512C124.155 417.512 132.189 415.549 135.457 412.383C142.554 409.208 147.902 401.856 148.377 394.101C148.38 394.059 148.382 394.017 148.384 393.974C148.41 393.385 150.996 334.247 151.037 265.027C151.029 250.683 150.91 236.775 150.729 223.728H439.5C445.29 223.728 450 228.438 450 234.228V432.012Z" fill="#FFFF00"/>
<path d="M262.174 173.418H300.866C305.008 173.418 308.366 170.06 308.366 165.918C308.366 161.776 305.008 158.418 300.866 158.418H262.174C258.032 158.418 254.674 161.776 254.674 165.918C254.674 170.06 258.032 173.418 262.174 173.418Z" fill="#FFFF00"/>
<path d="M262.174 123.108H339.558C343.7 123.108 347.058 119.75 347.058 115.608C347.058 111.466 343.7 108.108 339.558 108.108H262.174C258.032 108.108 254.674 111.466 254.674 115.608C254.674 119.75 258.032 123.108 262.174 123.108Z" fill="#FFFF00"/>
<path d="M262.174 72.799H339.558C343.7 72.799 347.058 69.441 347.058 65.299C347.058 61.157 343.7 57.799 339.558 57.799H262.174C258.032 57.799 254.674 61.157 254.674 65.299C254.674 69.441 258.032 72.799 262.174 72.799Z" fill="#FFFF00"/>
</svg>
