<svg id="Layer" enable-background="new 0 0 64 64" height="512" viewBox="0 0 64 64" width="512" xmlns="http://www.w3.org/2000/svg"><path d="m8 12h22v4.181c-5.666.956-10 5.885-10 11.819v18.263l-2.891-1.927-2.219 3.328 7.11 4.739 7.109-4.739-2.219-3.328-2.89 1.927v-9.344c2.126 1.909 4.925 3.081 8 3.081s5.874-1.172 8-3.081v7.081h-4v12h12v-12h-4v-16c0-5.934-4.334-10.863-10-11.819v-4.181h22v-4h-48zm36 40h-4v-4h4zm-4-24c0 4.411-3.589 8-8 8s-8-3.589-8-8 3.589-8 8-8 8 3.589 8 8z"/><path d="m30 26h4v4h-4z"/></svg>