<svg height="512pt" viewBox="0 0 512.00019 512" width="512pt" xmlns="http://www.w3.org/2000/svg"><path d="m469.332031 0h-426.664062c-23.554688.0273438-42.6406252 19.113281-42.667969 42.667969v273.066406c.0273438 23.550781 19.113281 42.636719 42.667969 42.664063h271.84375c20.253906-.085938 39.707031 7.898437 54.058593 22.1875l115.851563 126.074218c2.96875 3.386719 7.25 5.335938 11.757813 5.339844 1.925781 0 3.835937-.351562 5.640624-1.03125 6.148438-2.296875 10.210938-8.183594 10.179688-14.746094v-453.554687c-.027344-23.554688-19.113281-42.6406252-42.667969-42.667969zm-452.265625 315.734375v-273.066406c0-14.140625 11.460938-25.601563 25.601563-25.601563h286.0625l-129.707031 324.265625h-156.355469c-14.140625 0-25.601563-11.460937-25.601563-25.597656zm477.867188 177.140625-114.039063-124.046875c-17.566406-17.664063-41.46875-27.566406-66.382812-27.496094h-97.109375l129.707031-324.265625h122.222656c14.140625 0 25.601563 11.460938 25.601563 25.601563zm0 0"/><path d="m199.082031 281.121094c4.449219-1.550782 6.796875-6.414063 5.25-10.863282l-64.386719-184.925781c-1.796874-5.050781-6.582031-8.429687-11.945312-8.429687s-10.148438 3.378906-11.945312 8.429687l-64.386719 184.925781c-1.089844 2.902344-.527344 6.167969 1.480469 8.53125 2.003906 2.363282 5.132812 3.453126 8.171874 2.847657 3.039063-.605469 5.511719-2.8125 6.460938-5.761719l18.789062-54.007812h82.859376l18.773437 54.007812c1.550781 4.445312 6.414063 6.796875 10.863281 5.246094zm-106.570312-76.320313 35.488281-101.992187 35.488281 101.992187zm0 0"/><path d="m469.332031 238.933594c-25.863281 0-46.871093-24.328125-56.703125-51.199219h17.160156c6.082032-.011719 11.804688-2.875 15.464844-7.730469l12.132813-16.164062c3.878906-5.171875 4.503906-12.089844 1.613281-17.871094-2.894531-5.78125-8.800781-9.433594-15.265625-9.433594h-34.132813v-17.070312h17.066407c4.710937 0 8.53125-3.820313 8.53125-8.53125 0-4.714844-3.820313-8.535156-8.53125-8.535156h-17.066407v-17.066407c0-4.710937-3.820312-8.53125-8.535156-8.53125-4.710937 0-8.53125 3.820313-8.53125 8.53125v17.066407h-17.070312c-4.710938 0-8.53125 3.820312-8.53125 8.535156 0 4.710937 3.820312 8.53125 8.53125 8.53125h17.070312v17.070312h-34.136718c-6.460938 0-12.371094 3.652344-15.261719 9.433594s-2.269531 12.699219 1.609375 17.871094l12.117187 16.152344c3.660157 4.867187 9.390625 7.730468 15.480469 7.742187h17.160156c-9.832031 26.871094-30.839844 51.199219-56.703125 51.199219-4.714843 0-8.535156 3.820312-8.535156 8.53125 0 4.714844 3.820313 8.535156 8.535156 8.535156 25.402344 0 45.882813-15.835938 59.734375-36.640625v53.707031c0 4.714844 3.820313 8.535156 8.53125 8.535156 4.714844 0 8.535156-3.820312 8.535156-8.535156v-53.707031c13.847657 20.804687 34.328126 36.640625 59.730469 36.640625 4.714844 0 8.535157-3.820312 8.535157-8.535156 0-4.710938-3.820313-8.53125-8.535157-8.53125zm-25.597656-85.382813-12.167969 16.210938c-.425781.566406-1.09375.898437-1.800781.898437h-20.164063v-17.058594zm-73.226563 16.210938-12.109374-16.160157h34.136718v17.066407h-20.191406c-.710938 0-1.382812-.335938-1.808594-.90625zm0 0"/><path d="m60.167969 408.695312-16.851563-16.871093c-8.691406-8.921875-22.53125-10.320313-32.828125-3.320313-5.984375 4.28125-9.785156 10.972656-10.3984372 18.304688-.6093748 7.332031 2.0312502 14.5625 7.2226562 19.773437l66.425781 66.492188c3.078125 3.09375 6.742188 5.542969 10.777344 7.210937l25.871094 10.734375c1.550781.644531 3.210937.972657 4.890625.972657.710937-.078126 1.414062-.21875 2.097656-.417969.675781.234375 1.378906.375 2.089844.425781h170.667968c4.714844 0 8.535157-3.820312 8.535157-8.535156 0-4.710938-3.820313-8.53125-8.535157-8.53125h-162.984374c-.070313-.179688-.0625-.375-.136719-.554688l-10.710938-25.898437c-1.664062-4.035157-4.113281-7.703125-7.203125-10.785157zm-43.101563-.453124c.207032-2.375 1.457032-4.535157 3.414063-5.894532 1.21875-.851562 2.671875-1.296875 4.15625-1.28125 2.484375.035156 4.855469 1.042969 6.605469 2.808594l10.820312 10.84375-11.230469 11.25-11.445312-11.453125c-1.65625-1.648437-2.503907-3.941406-2.320313-6.273437zm73.984375 76.28125c-1.964843-.808594-3.746093-2-5.238281-3.507813l-42.914062-42.964844 11.226562-11.257812 42.898438 42.957031c1.503906 1.503906 2.699218 3.292969 3.507812 5.257812l6.714844 16.214844zm0 0"/><path d="m136.535156 469.332031c0 4.714844 3.820313 8.535157 8.53125 8.535157h85.332032c4.714843 0 8.535156-3.820313 8.535156-8.535157 0-4.710937-3.820313-8.53125-8.535156-8.53125h-85.332032c-4.710937 0-8.53125 3.820313-8.53125 8.53125zm0 0"/><path d="m204.800781 426.667969h-85.335937c-4.710938 0-8.53125 3.820312-8.53125 8.53125 0 4.714843 3.820312 8.535156 8.53125 8.535156h85.335937c4.710938 0 8.53125-3.820313 8.53125-8.535156 0-4.710938-3.820312-8.53125-8.53125-8.53125zm0 0"/></svg>