<svg id="badge" enable-background="new 0 0 300 300" height="512" viewBox="0 0 300 300" width="512" xmlns="http://www.w3.org/2000/svg"><path d="m150 226c-.651 0-1.303-.08-1.94-.239l-9.923-2.48c-35.408-8.851-60.137-40.523-60.137-77.021v-40.26c0-4.418 3.582-8 8-8 22.539 0 43.47-8.273 52.084-20.586 1.496-2.14 3.943-3.414 6.555-3.414h10.723c2.611 0 5.059 1.274 6.555 3.414 8.613 12.313 29.544 20.586 52.083 20.586 4.418 0 8 3.582 8 8v40.26c0 36.498-24.729 68.169-60.137 77.021l-9.923 2.48c-.637.159-1.289.239-1.94.239zm-56-112.295v32.555c0 29.142 19.745 54.431 48.018 61.498l7.982 1.996 7.982-1.996c28.273-7.067 48.018-32.356 48.018-61.498v-32.555c-22.832-1.69-43.248-10.532-54.542-23.705h-2.916c-11.294 13.173-31.71 22.015-54.542 23.705z"/><path d="m145.763 123.361-5.747 15.762-19.45 2.635c-2.625.046-3.659 3.318-1.509 4.775l13.595 10.857-3.34 18.012c-.769 2.432 2.124 4.392 4.222 2.86l15.56-12.077 15.975 11.523c2.15 1.457 4.972-.604 4.119-3.007l-3.971-17.884 13.205-11.328c2.098-1.531.949-4.765-1.676-4.719l-19.53-1.95-6.298-15.55c-.854-2.403-4.386-2.341-5.155.091z" fill="#0faa00"/><path d="m62 114h-32c-4.418 0-8-3.582-8-8s3.582-8 8-8h32c4.418 0 8 3.582 8 8s-3.582 8-8 8z"/><path d="m62 138h-24c-4.418 0-8-3.582-8-8s3.582-8 8-8h24c4.418 0 8 3.582 8 8s-3.582 8-8 8z"/><path d="m62 162h-16c-4.418 0-8-3.582-8-8s3.582-8 8-8h16c4.418 0 8 3.582 8 8s-3.582 8-8 8z"/><path d="m70 186h-16c-4.418 0-8-3.582-8-8s3.582-8 8-8h16c4.418 0 8 3.582 8 8s-3.582 8-8 8z"/><path d="m270 114h-32c-4.418 0-8-3.582-8-8s3.582-8 8-8h32c4.418 0 8 3.582 8 8s-3.582 8-8 8z"/><path d="m262 138h-24c-4.418 0-8-3.582-8-8s3.582-8 8-8h24c4.418 0 8 3.582 8 8s-3.582 8-8 8z"/><path d="m254 162h-16c-4.418 0-8-3.582-8-8s3.582-8 8-8h16c4.418 0 8 3.582 8 8s-3.582 8-8 8z"/><path d="m246 186h-16c-4.418 0-8-3.582-8-8s3.582-8 8-8h16c4.418 0 8 3.582 8 8s-3.582 8-8 8z"/></svg>