<svg width="404" height="404" viewBox="0 0 404 404" fill="none" xmlns="http://www.w3.org/2000/svg">
<g clip-path="url(#clip0)">
<path d="M8.9955 126.498C11.4012 135.361 19.4846 141.486 28.6687 141.404C29.9926 141.405 31.3142 141.279 32.6145 141.027L73.4158 133.203L104.804 126.315C115.135 124.458 122.241 114.887 121.03 104.461L117.2 75.0849C116.721 71.4287 125.104 67.3755 132.921 66.1975C178.234 58.8661 224.422 58.7461 269.773 65.8409C282.235 67.9886 284.989 69.9887 285.581 70.7359C286.834 73.8281 287.017 77.25 286.1 80.4581L283.352 99.9837C281.808 106.297 282.904 112.966 286.389 118.452C291.269 123.608 297.862 126.808 304.932 127.454C309.645 128.356 313.274 129.265 316.903 130.147C320.754 131.103 324.599 132.059 329.607 133.015L366.106 140.058C372.454 141.929 379.254 141.534 385.342 138.94C391.75 134.811 395.9 127.961 396.593 120.37L396.815 119.394C397.522 116.284 398.458 113.2 399.394 110.116C402.058 102.719 403.495 94.9364 403.649 87.0763C402.562 73.2245 396.177 60.3249 385.82 51.062C339.202 5.30568 258.569 0.0130005 202.013 0.0130005C72.8974 0.0137895 23.7003 37.1793 5.16406 68.3594C0.0733705 76.9849 -1.32476 87.298 1.28608 96.9674L8.9955 126.498ZM16.7317 75.2538C33.4832 47.0633 79.2261 13.4798 202.014 13.4798C256.234 13.4798 333.305 18.3748 376.396 60.6705C384.229 67.5152 389.152 77.0938 390.158 87.4472C389.922 93.8594 388.677 100.194 386.468 106.218C385.451 109.585 384.448 112.985 383.654 116.398L383.418 117.422C382.294 122.431 381.398 125.804 379.089 127.009C375.659 127.943 372.033 127.878 368.639 126.82L332.167 119.859C327.454 118.957 323.811 118.048 320.183 117.166C316.332 116.21 312.487 115.254 307.491 114.298C304.267 113.679 298.86 112.648 297.143 110.38C296.061 107.688 295.91 104.711 296.712 101.923L299.466 82.3975C301.073 75.8313 300.058 68.8975 296.638 63.0675C292.288 56.873 282.263 54.3955 272.089 52.6384C225.314 45.2982 177.671 45.4024 130.928 52.9485C116.196 55.1837 102.118 63.4518 103.868 76.8973L107.706 106.266C107.984 109.693 105.532 112.74 102.125 113.2L70.7229 120.021L30.0834 127.804C26.5707 128.597 23.043 126.539 22.0039 123.091L14.3213 93.6014C12.6234 87.4101 13.4921 80.7958 16.7317 75.2538Z" fill="#FFFF00"/>
<path d="M402.788 307.376C402.721 307.201 402.653 307.033 402.579 306.878C401.95 305.205 401.106 303.621 400.068 302.166L314.486 186.023C309.397 179.147 301.355 175.084 292.799 175.069H275.294L269.342 127.447C269.078 120.203 263.125 114.468 255.876 114.473H235.677C228.24 114.473 222.211 120.502 222.211 127.939V181.802C222.211 185.521 225.225 188.535 228.944 188.535C232.663 188.535 235.677 185.521 235.677 181.802V127.939H255.875C255.873 128.218 255.891 128.497 255.929 128.774L262.661 182.637C263.083 186.006 265.945 188.534 269.34 188.535H292.798C297.073 188.542 301.094 190.572 303.638 194.009L383.941 302.994H329.936C326.218 302.994 323.204 306.009 323.204 309.727C323.204 313.445 326.218 316.459 329.936 316.459H390.532V370.323C390.532 381.478 381.49 390.521 370.334 390.521H33.6915C22.5365 390.521 13.4929 381.479 13.4929 370.323V316.459H296.274C299.993 316.459 303.007 313.445 303.007 309.727C303.007 306.008 299.993 302.994 296.274 302.994H20.0843L100.387 194.009C102.931 190.572 106.951 188.542 111.228 188.535H134.685C138.08 188.534 140.943 186.005 141.364 182.637L148.096 128.774C148.134 128.497 148.152 128.218 148.15 127.939H168.349V181.802C168.349 185.521 171.363 188.535 175.081 188.535H202.013C205.731 188.535 208.745 185.521 208.745 181.802C208.745 178.084 205.731 175.07 202.013 175.07H181.814V127.94C181.814 120.502 175.785 114.474 168.348 114.474H148.149C140.9 114.469 134.948 120.203 134.683 127.448L128.738 175.07H111.232C102.687 175.093 94.656 179.155 89.5724 186.024L3.95925 302.172C2.91539 303.624 2.07115 305.209 1.44783 306.885C1.37367 307.033 1.3066 307.201 1.23874 307.369C0.450523 309.544 0.0410271 311.837 0.026825 314.149V370.322C0.0489172 388.905 15.108 403.964 33.6915 403.987H370.336C388.919 403.965 403.978 388.905 404.001 370.322V314.149C403.987 311.84 403.577 309.548 402.788 307.376Z" fill="#FFFF00"/>
<path d="M157.644 225.478C163.845 222.169 170.469 219.72 177.331 218.199C193.586 214.571 210.442 214.571 226.696 218.199C229.043 218.757 231.51 218.015 233.161 216.256C234.813 214.496 235.396 211.988 234.69 209.68C233.985 207.373 232.098 205.619 229.746 205.083C211.483 200.996 192.543 200.996 174.28 205.083C166.218 206.883 158.44 209.773 151.159 213.675C144.777 217.016 139.152 221.636 134.637 227.248C125.711 237.978 125.711 253.549 134.637 264.279C139.152 269.891 144.777 274.512 151.159 277.852C158.44 281.753 166.218 284.643 174.28 286.444C192.54 290.555 211.486 290.555 229.746 286.444C237.807 284.644 245.586 281.754 252.866 277.852C259.248 274.512 264.873 269.891 269.389 264.279C278.315 253.549 278.315 237.978 269.389 227.248C267.943 225.283 265.547 224.254 263.126 224.558C260.706 224.862 258.639 226.451 257.724 228.713C256.809 230.974 257.189 233.554 258.716 235.456C263.904 241.349 263.904 250.179 258.716 256.072C255.319 260.194 251.123 263.589 246.382 266.049C240.181 269.359 233.557 271.808 226.695 273.328C210.44 276.957 193.584 276.957 177.33 273.328C170.47 271.809 163.848 269.36 157.65 266.049C152.905 263.589 148.707 260.196 145.308 256.072C140.12 250.179 140.12 241.349 145.308 235.456C148.707 231.333 152.902 227.94 157.644 225.478Z" fill="#FFFF00"/>
</g>
<defs>
<clipPath id="clip0">
<rect width="404" height="404" fill="white"/>
</clipPath>
</defs>
</svg>
