<svg height="512" viewBox="0 0 60 57" width="512" xmlns="http://www.w3.org/2000/svg"><g id="003---Ant" transform="translate(0 -1)"><path id="Shape" d="m34.82 28.77c-1.1778602.6503593-2.4793912 1.0455887-3.82 1.16v9.07c0 .5522847-.4477153 1-1 1s-1-.4477153-1-1v-9.07c-1.3406088-.1144113-2.6421398-.5096407-3.82-1.16-4.32 1.52-6.62 5.18-6.62 10.67 0 7.15 8.92 15.89 11.44 18.21 2.52-2.32 11.44-11.06 11.44-18.21 0-5.44-2.3-9.15-6.62-10.67zm-3.82 15.23c0 .5522847-.4477153 1-1 1s-1-.4477153-1-1v-1c0-.5522847.4477153-1 1-1s1 .4477153 1 1z"/><path id="Shape" d="m34.2 26.84c2.8-1.84 2.21-4.84-1.05-6.22-2.0696475.5049368-4.2303525.5049368-6.3 0-3.31 1.38-3.85 4.38-1.05 6.21 2.5825125 1.5571486 5.8137874 1.5609953 8.4.01z"/><path id="Shape" d="m24 17c1.6568542 0 3-1.3431458 3-3s-1.3431458-3-3-3-3 1.3431458-3 3 1.3431458 3 3 3zm0-5c.5522847 0 1 .4477153 1 1s-.4477153 1-1 1-1-.4477153-1-1 .4477153-1 1-1z"/><path id="Shape" d="m29 14c-.0105654 1.8415281-1.0325464 3.528181-2.66 4.39 2.3726644.8106756 4.9473356.8106756 7.32 0-2.1572122-1.3330451-2.974902-4.0698935-1.9025247-6.3678448 1.0723773-2.29795144 3.6951933-3.42923051 6.1025247-2.6321552 1.1728081-1.8689636 1.348647-4.19602291.47-6.22-1.13 1.6-3.52 3.6-8.33 3.6s-7.2-2-8.34-3.61c-.8792035 2.02841466-.6995471 4.36020498.48 6.23 1.5354794-.61539833 3.2759456-.43152581 4.6489355.49113938 1.3729898.92266522 2.2007671 2.46468222 2.2110645 4.11886062z"/><path id="Shape" d="m39 14c0-1.6568542-1.3431458-3-3-3s-3 1.3431458-3 3 1.3431458 3 3 3 3-1.3431458 3-3zm-3 0c-.5522847 0-1-.4477153-1-1s.4477153-1 1-1 1 .4477153 1 1-.4477153 1-1 1z"/><path id="Shape" d="m4.87 23c6.85 2 6.75 2 7.69 2h9.55c-.281302-1.3291782.0090035-2.7153869.8-3.82l-7.06-4.24c-.6446147-.3825734-1.1226536-.9926081-1.34-1.71l-2.51-8.23 1-4.8c.0714531-.35726559-.0531204-.72551239-.3267949-.9660254s-.6548724-.31675258-1-.2c-.3451277.11675258-.601752.40875981-.6732051.7660254l-.56 2.81-1.64-2.21c-.21435935-.28581247-.5649147-.43555473-.91961524-.39282032s-.65965882.27145311-.8.6c-.14034119.32854688-.09474411.70700785.11961524.99282032l2.89 3.85 2.5 8.36c.3665989 1.192412 1.1607613 2.2073729 2.23 2.85l7.24 4.34h-9.5c-.57 0-.31 0-6.86-1.84l-1.81-3.61c-.1440974-.3460386-.46961514-.5824323-.84325912-.6123817-.37364399-.0299494-.73265995.1515756-.93003682.4702434-.19737686.3186678-.19996479.7209575-.00670406 1.0421383l1.27 2.55h-2.38c-.55228475 0-1 .4477153-1 1s.44771525 1 1 1z"/><path id="Shape" d="m2.71 46.71 1.29-1.3v2.59c0 .5522847.44771525 1 1 1s1-.4477153 1-1v-4.83l3.35-9.17c.27710888-.7954857.875893-1.4378177 1.65-1.77l12-5.23c-.4113387-.5384656-.7105666-1.1539229-.88-1.81l-12 5.24c-1.25079046.5576862-2.22408546 1.5958676-2.7 2.88l-3.28 9.14-2.85 2.84c-.39212214.3921222-.39212212 1.0278778.00000004 1.42.39212215.3921221 1.02787778.3921221 1.41999996 0z"/><path id="Shape" d="m59 21h-2.38l1.27-2.55c.1932607-.3211808.1906728-.7234705-.0067041-1.0421383-.1973768-.3186678-.5563928-.5001928-.9300368-.4702434s-.6991617.2663431-.8432591.6123817l-1.81 3.61-6 1.72c-.56.17-.2.12-10.32.12l7.25-4.34c1.0635775-.6466055 1.8533607-1.6605164 2.22-2.85l2.5-8.36 2.85-3.85c.3313708-.4418278.2418278-1.06862915-.2-1.4s-1.0686292-.2418278-1.4.2l-1.66 2.21-.54-2.81c-.0714531-.3572656-.3280774-.64927284-.6732051-.76602543-.3451276-.11675258-.7263255-.04051301-1 .20000001-.2736745.24051301-.398248.60875983-.3267949.96602542l1 4.8-2.48 8.28c-.2148735.7157592-.6891561 1.3255511-1.33 1.71l-7.07 4.24c.7909965 1.1046131 1.081302 2.4908218.8 3.82 10.16 0 10 .07 10.92-.19l6.29-1.86h3.87c.5522847 0 1-.4477153 1-1s-.4477153-1-1-1z"/><path id="Shape" d="m55.86 42.45-3.33-9.19c-.4801235-1.2791538-1.4525071-2.3127616-2.7-2.87l-12-5.24c-.1503135.6659178-.4325353 1.2949663-.83 1.85l12 5.23c.774107.3321823 1.3728911.9745143 1.65 1.77l3.35 9.17v4.83c0 .5522847.4477153 1 1 1s1-.4477153 1-1v-2.59l1.29 1.3c.3921222.3921222 1.0278778.3921222 1.42 0s.3921222-1.0278778 0-1.42z"/></g></svg>